<?xml version="1.0" standalone="no"?>
<!DOCTYPE svg PUBLIC "-//W3C//DTD SVG 20010904//EN"
 "http://www.w3.org/TR/2001/REC-SVG-20010904/DTD/svg10.dtd">
<svg version="1.0" xmlns="http://www.w3.org/2000/svg"
 width="1024.000000pt" height="1024.000000pt" viewBox="0 0 1024.000000 1024.000000"
 preserveAspectRatio="xMidYMid meet">
<metadata>
Created by potrace 1.15, written by Peter Selinger 2001-2017
</metadata>
<g transform="translate(0.000000,1024.000000) scale(0.100000,-0.100000)"
fill="#000000" stroke="none">
<path d="M4885 8394 c-732 -47 -1405 -242 -2090 -607 -1004 -535 -1986 -1447
-2680 -2489 l-118 -178 108 -162 c540 -812 1240 -1537 2005 -2080 819 -580
1665 -915 2560 -1015 214 -23 685 -23 900 0 606 67 1142 226 1708 507 315 155
564 304 852 508 763 541 1466 1269 2005 2080 l108 162 -118 178 c-623 936
-1503 1791 -2395 2326 -716 430 -1411 673 -2150 751 -141 15 -573 27 -695 19z
m725 -524 c1008 -134 1937 -597 2869 -1429 375 -334 873 -896 1130 -1273 l32
-48 -32 -47 c-198 -292 -534 -688 -849 -1003 -960 -960 -2006 -1534 -3075
-1689 -402 -58 -822 -53 -1235 15 -1175 196 -2389 956 -3384 2120 -168 196
-466 582 -466 604 0 8 135 193 229 316 248 320 565 667 861 939 942 867 1929
1368 2940 1494 229 29 241 29 550 25 206 -2 314 -8 430 -24z"/>
<path d="M4906 7473 c-2 -10 -7 -83 -11 -163 -8 -209 -11 -220 -45 -220 -24 0
-172 -28 -242 -45 -22 -6 -29 5 -108 169 -47 96 -89 175 -95 176 -20 0 -385
-155 -385 -165 0 -5 27 -90 61 -189 59 -170 61 -179 43 -189 -10 -6 -68 -44
-128 -84 l-108 -73 -115 102 c-64 57 -130 115 -148 130 l-32 27 -151 -152
-152 -152 76 -85 c42 -47 101 -113 130 -146 l54 -62 -73 -108 c-40 -60 -78
-117 -84 -128 -10 -18 -19 -16 -187 43 -98 33 -183 61 -189 61 -10 0 -167
-361 -167 -384 0 -4 79 -46 176 -93 171 -83 175 -86 169 -112 -18 -66 -45
-209 -45 -234 0 -38 -19 -43 -195 -51 -82 -4 -162 -9 -177 -12 l-28 -6 0 -208
c0 -207 0 -208 23 -213 12 -3 96 -9 187 -12 91 -4 171 -12 178 -17 6 -6 12
-22 12 -37 0 -23 26 -159 45 -231 6 -24 -1 -29 -169 -110 -96 -47 -175 -89
-175 -95 -2 -21 155 -385 166 -385 6 0 91 28 189 62 168 58 178 61 188 43 6
-10 44 -68 84 -128 l72 -109 -102 -115 c-57 -64 -115 -130 -130 -148 l-27 -32
152 -151 152 -152 85 76 c47 42 113 101 147 131 l61 54 109 -73 c60 -40 118
-78 128 -84 18 -10 15 -20 -43 -188 -34 -98 -62 -183 -62 -189 0 -11 363 -168
385 -166 6 0 46 75 89 167 44 92 82 170 86 174 3 4 58 -4 123 -17 64 -14 130
-25 146 -25 36 0 38 -9 46 -220 4 -80 9 -153 11 -162 5 -16 24 -18 214 -18
190 0 209 2 214 18 2 9 7 87 11 172 9 218 4 206 74 213 31 4 97 16 146 27 49
11 91 17 95 13 3 -4 42 -83 86 -175 43 -92 84 -167 89 -167 23 -2 385 155 385
166 0 6 -28 91 -62 189 -58 168 -61 178 -43 188 10 6 68 44 128 84 l109 72 62
-54 c33 -29 99 -88 146 -129 l85 -76 152 151 152 151 -27 32 c-15 18 -73 85
-130 148 l-103 116 73 108 c40 60 78 118 84 128 10 18 20 15 190 -43 98 -34
184 -62 189 -62 10 0 165 364 165 385 -1 6 -80 48 -176 95 -164 79 -175 86
-169 108 18 71 45 218 45 243 0 16 1 29 3 30 1 0 90 6 197 12 l195 12 0 215 0
215 -185 11 c-102 5 -190 13 -196 17 -6 3 -14 31 -18 62 -3 30 -15 94 -26 142
-12 47 -17 89 -13 93 4 3 83 42 175 86 92 43 167 84 167 89 2 23 -155 385
-166 385 -6 0 -91 -28 -188 -62 -169 -58 -178 -60 -188 -42 -6 10 -44 68 -84
128 l-73 108 54 62 c29 33 88 99 130 146 l76 85 -152 152 -151 152 -32 -27
c-18 -15 -84 -73 -148 -130 l-115 -102 -108 73 c-60 40 -118 78 -128 84 -18
10 -16 19 43 189 34 99 61 184 61 189 0 10 -365 166 -385 164 -5 0 -48 -79
-95 -175 -81 -168 -86 -175 -110 -169 -79 20 -209 45 -237 45 -39 0 -40 3 -48
210 -4 85 -9 163 -11 173 -5 15 -24 17 -214 17 -190 0 -209 -2 -214 -17z m460
-1058 c406 -82 749 -343 932 -710 233 -467 170 -1009 -163 -1423 -268 -332
-727 -521 -1149 -473 -573 65 -1021 467 -1153 1034 -23 97 -26 134 -26 277 0
143 3 180 26 277 102 441 394 785 802 946 106 42 227 74 328 87 97 12 306 4
403 -15z"/>
<path d="M5020 5920 c-232 -29 -449 -164 -574 -358 -92 -141 -129 -269 -129
-442 -1 -316 165 -582 449 -724 206 -102 469 -107 682 -14 131 57 268 175 346
296 91 140 129 271 129 442 0 171 -38 302 -129 442 -163 253 -472 396 -774
358z"/>
</g>
</svg>
