<?xml version="1.0" standalone="no"?>
<!DOCTYPE svg PUBLIC "-//W3C//DTD SVG 20010904//EN"
 "http://www.w3.org/TR/2001/REC-SVG-20010904/DTD/svg10.dtd">
<svg class='svg-home' version="1.0" xmlns="http://www.w3.org/2000/svg"
 width="983.000000pt" height="983.000000pt" viewBox="0 0 983.000000 983.000000"
 preserveAspectRatio="xMidYMid meet">
<metadata>
Created by potrace 1.15, written by Peter Selinger 2001-2017
</metadata>
<g transform="translate(0.000000,983.000000) scale(0.100000,-0.100000)"
fill="#000000" stroke="none">
<path d="M3195 6294 c-940 -960 -1711 -1750 -1713 -1755 -2 -5 162 -9 407 -9
l411 0 0 -1375 0 -1375 965 0 965 0 0 583 c1 1028 17 1227 116 1435 70 145
197 247 371 294 105 28 345 31 443 5 269 -71 417 -253 475 -585 27 -155 35
-405 35 -1074 l0 -658 930 0 930 0 0 1375 0 1375 415 2 416 3 -1715 1750
c-944 963 -1721 1751 -1728 1752 -7 1 -782 -783 -1723 -1743z m3228 -159
l1314 -1340 -234 -3 -233 -2 0 -1375 0 -1375 -669 0 -669 0 -5 658 c-5 705
-10 785 -61 984 -111 438 -396 670 -851 695 -199 11 -403 -25 -549 -96 -278
-136 -427 -404 -476 -856 -6 -55 -14 -389 -17 -743 l-6 -642 -703 0 -704 0 0
1375 0 1375 -231 2 -232 3 1409 1437 1409 1438 97 -98 c54 -53 689 -700 1411
-1437z"/>
</g>
</svg>
