<?xml version="1.0" standalone="no"?>
<!DOCTYPE svg PUBLIC "-//W3C//DTD SVG 20010904//EN"
 "http://www.w3.org/TR/2001/REC-SVG-20010904/DTD/svg10.dtd">
<svg version="1.0" xmlns="http://www.w3.org/2000/svg"
 width="512.000000pt" height="512.000000pt" viewBox="0 0 512.000000 512.000000"
 preserveAspectRatio="xMidYMid meet">
<metadata>
Created by potrace 1.15, written by Peter Selinger 2001-2017
</metadata>
<g transform="translate(0.000000,512.000000) scale(0.100000,-0.100000)"
fill="#000000" stroke="none">
<path d="M1654 4309 c-198 -33 -388 -133 -542 -283 -134 -129 -221 -274 -279
-461 l-28 -90 0 -915 0 -915 28 -90 c58 -187 145 -332 279 -461 130 -127 262
-205 443 -261 l90 -28 915 0 915 0 90 28 c181 56 313 134 443 261 134 129 221
274 279 461 l28 90 0 915 0 915 -28 90 c-56 181 -134 313 -261 443 -129 134
-274 221 -461 279 l-90 28 -885 1 c-487 1 -908 -2 -936 -7z m1796 -333 c206
-54 377 -193 470 -381 78 -158 75 -119 75 -1035 0 -915 3 -876 -75 -1035 -70
-143 -180 -253 -325 -325 -158 -78 -119 -75 -1035 -75 -915 0 -876 -3 -1035
75 -143 69 -253 180 -325 325 -78 158 -75 119 -75 1035 0 899 -2 869 64 1014
104 230 327 391 575 416 44 4 428 7 851 6 690 -2 777 -4 835 -20z"/>
<path d="M3423 3630 c-42 -25 -63 -68 -63 -127 0 -89 55 -143 145 -143 90 0
145 54 145 143 0 93 -54 147 -145 147 -32 0 -62 -7 -82 -20z"/>
<path d="M2386 3509 c-27 -4 -85 -20 -130 -34 -332 -109 -591 -408 -646 -748
-13 -80 -13 -254 0 -334 55 -336 307 -632 635 -743 110 -38 185 -50 315 -50
130 0 205 12 315 50 328 111 580 407 635 743 13 80 13 254 0 334 -63 389 -394
720 -783 783 -72 11 -270 11 -341 -1z m344 -340 c106 -29 194 -81 276 -163
125 -126 184 -268 184 -446 0 -178 -59 -320 -184 -446 -126 -125 -268 -184
-446 -184 -178 0 -320 59 -446 184 -125 126 -184 268 -184 446 0 178 59 321
184 446 127 126 262 183 441 183 72 1 122 -5 175 -20z"/>
</g>
</svg>
