<?xml version="1.0" standalone="no"?>
<!DOCTYPE svg PUBLIC "-//W3C//DTD SVG 20010904//EN"
 "http://www.w3.org/TR/2001/REC-SVG-20010904/DTD/svg10.dtd">
<svg version="1.0" xmlns="http://www.w3.org/2000/svg"
 width="512.000000pt" height="512.000000pt" viewBox="0 0 512.000000 512.000000"
 preserveAspectRatio="xMidYMid meet">
<metadata>
Created by potrace 1.15, written by Peter Selinger 2001-2017
</metadata>
<g transform="translate(0.000000,512.000000) scale(0.100000,-0.100000)"
fill="#000000" stroke="none">
<path d="M3040 4683 c-52 -27 -62 -69 -58 -232 4 -133 4 -133 32 -156 16 -13
42 -26 59 -29 16 -3 281 -6 588 -6 369 0 576 -4 611 -11 140 -29 292 -148 357
-278 63 -123 61 -78 61 -1411 0 -1005 -3 -1226 -14 -1281 -42 -195 -213 -368
-404 -408 -35 -7 -246 -11 -625 -11 -650 0 -631 2 -654 -75 -18 -62 -16 -260
3 -300 32 -68 15 -67 697 -62 524 3 622 6 681 20 200 48 348 135 497 295 127
136 213 307 239 477 7 48 10 485 8 1390 l-3 1320 -22 70 c-108 346 -375 600
-719 682 -59 14 -157 17 -684 20 -574 3 -617 2 -650 -14z"/>
<path d="M1856 4583 c-42 -11 -98 -58 -124 -102 l-27 -46 -3 -507 -3 -508
-772 -2 c-769 -3 -772 -3 -812 -25 -50 -27 -80 -58 -100 -105 -13 -33 -15
-127 -15 -728 0 -601 2 -695 15 -728 20 -47 50 -78 100 -105 40 -22 43 -22
812 -25 l772 -2 3 -508 3 -507 27 -46 c15 -25 46 -59 70 -75 38 -26 52 -29
118 -29 63 0 81 4 110 24 50 34 1845 1827 1883 1881 29 41 32 52 32 120 0 63
-4 81 -24 110 -34 50 -1827 1845 -1880 1882 -34 24 -55 31 -105 34 -33 1 -70
0 -80 -3z"/>
</g>
</svg>
