<?xml version="1.0" standalone="no"?>
<!DOCTYPE svg PUBLIC "-//W3C//DTD SVG 20010904//EN"
 "http://www.w3.org/TR/2001/REC-SVG-20010904/DTD/svg10.dtd">
<svg version="1.0" xmlns="http://www.w3.org/2000/svg"
 width="512.000000pt" height="512.000000pt" viewBox="0 0 512.000000 512.000000"
 preserveAspectRatio="xMidYMid meet">
<metadata>
Created by potrace 1.15, written by Peter Selinger 2001-2017
</metadata>
<g transform="translate(0.000000,512.000000) scale(0.100000,-0.100000)"
fill="#000000" stroke="none">
<path d="M2305 5113 c-671 -72 -1279 -393 -1707 -903 -301 -358 -488 -764
-571 -1240 -19 -109 -21 -162 -21 -410 0 -248 2 -301 21 -410 94 -539 320
-987 693 -1374 383 -398 866 -650 1430 -749 109 -19 162 -21 410 -21 248 0
301 2 410 21 564 99 1047 352 1430 749 373 387 599 835 693 1374 19 109 21
162 21 410 0 313 -10 407 -73 653 -228 881 -947 1600 -1828 1828 -227 58 -334
71 -613 74 -140 2 -273 1 -295 -2z m463 -544 c700 -76 1310 -510 1617 -1151
478 -999 45 -2201 -967 -2682 -1002 -478 -2198 -47 -2683 966 -478 1000 -46
2198 967 2683 330 157 710 223 1066 184z"/>
<path d="M2433 4105 c-58 -18 -147 -79 -181 -123 -95 -125 -95 -119 -99 -599
l-5 -411 -411 -5 c-457 -4 -460 -5 -562 -72 -114 -76 -177 -195 -177 -335 0
-150 69 -268 205 -354 75 -46 100 -49 534 -53 l411 -5 5 -411 c4 -457 5 -460
72 -562 76 -114 195 -177 335 -177 150 0 268 69 354 205 46 75 49 100 53 534
l5 411 411 5 c343 3 420 6 459 20 87 29 163 87 213 162 123 187 74 437 -110
560 -102 67 -105 68 -562 72 l-411 5 -5 411 c-4 457 -5 460 -72 562 -51 76
-120 128 -209 158 -60 20 -192 21 -253 2z"/>
</g>
</svg>
