<?xml version="1.0" standalone="no"?>
<!DOCTYPE svg PUBLIC "-//W3C//DTD SVG 20010904//EN"
 "http://www.w3.org/TR/2001/REC-SVG-20010904/DTD/svg10.dtd">
<svg version="1.0" xmlns="http://www.w3.org/2000/svg"
 width="512.000000pt" height="512.000000pt" viewBox="0 0 512.000000 512.000000"
 preserveAspectRatio="xMidYMid meet">
<metadata>
Created by potrace 1.15, written by Peter Selinger 2001-2017
</metadata>
<g transform="translate(0.000000,512.000000) scale(0.100000,-0.100000)"
fill="#000000" stroke="none">
<path d="M2375 5109 c-938 -98 -1667 -744 -1810 -1604 -25 -147 -23 -416 4
-566 70 -399 260 -687 551 -836 66 -33 83 -38 146 -38 123 0 157 42 213 270
18 72 32 154 32 183 0 59 -9 75 -105 213 -99 141 -131 268 -124 489 12 341
138 633 377 870 108 108 199 171 346 241 282 135 638 166 961 84 366 -93 606
-326 701 -680 25 -94 27 -113 27 -315 0 -236 -13 -351 -65 -560 -76 -313 -219
-567 -398 -710 -77 -61 -125 -87 -211 -111 -265 -76 -510 83 -511 331 0 75 19
152 116 475 81 265 109 373 130 504 38 227 -10 419 -133 538 -91 86 -188 123
-329 123 -280 -1 -511 -212 -603 -555 -16 -57 -23 -122 -27 -226 -6 -161 8
-277 53 -429 l25 -85 -181 -765 c-99 -421 -189 -814 -200 -875 -56 -317 -72
-692 -36 -851 36 -159 93 -224 196 -224 45 0 65 6 103 29 102 65 198 196 297
404 118 250 176 424 285 848 43 167 79 306 81 307 1 2 26 -14 56 -36 77 -58
143 -95 233 -130 152 -59 194 -67 385 -66 255 0 417 37 635 145 535 265 881
834 965 1589 18 160 16 447 -4 560 -99 556 -430 996 -944 1256 -210 107 -396
163 -649 199 -116 16 -448 19 -588 4z"/>
</g>
</svg>
