<?xml version="1.0" standalone="no"?>
<!DOCTYPE svg PUBLIC "-//W3C//DTD SVG 20010904//EN"
 "http://www.w3.org/TR/2001/REC-SVG-20010904/DTD/svg10.dtd">
<svg version="1.0" xmlns="http://www.w3.org/2000/svg"
 width="512.000000pt" height="512.000000pt" viewBox="0 0 512.000000 512.000000"
 preserveAspectRatio="xMidYMid meet">
<metadata>
Created by potrace 1.15, written by Peter Selinger 2001-2017
</metadata>
<g transform="translate(0.000000,512.000000) scale(0.100000,-0.100000)"
fill="#000000" stroke="none">
<path d="M2035 4356 c-80 -30 -130 -63 -187 -123 -93 -101 -119 -181 -127
-403 l-6 -165 -170 295 c-93 162 -182 308 -198 324 -23 24 -34 28 -62 23 -42
-7 -1230 -688 -1262 -724 -48 -51 -44 -60 242 -556 l265 -459 0 -869 c0 -930
0 -922 48 -948 15 -8 674 -11 2257 -11 l2236 0 24 25 25 24 0 1384 0 1384 -26
24 -26 24 -644 3 -644 2 0 183 c0 198 -9 257 -55 347 -33 64 -121 153 -187
186 -108 55 -92 54 -793 53 -649 0 -650 0 -710 -23z m1079 -176 c35 -14 68
-35 91 -62 64 -70 69 -91 73 -310 l4 -198 -526 0 -526 0 0 179 c0 191 5 219
52 288 34 51 77 82 143 105 43 15 91 17 342 18 270 0 296 -2 347 -20z m-1021
-57 c-42 -87 -53 -160 -53 -355 l0 -158 -65 0 -65 0 0 173 c0 191 6 224 53
294 29 44 122 113 152 113 6 0 -3 -30 -22 -67z m1406 1 c81 -73 94 -116 99
-331 l4 -183 -71 0 -71 0 0 205 c0 181 -2 213 -20 266 -12 34 -28 72 -37 85
l-15 24 31 -11 c17 -6 53 -31 80 -55z m-2096 -294 l125 -215 -327 -5 c-179 -3
-333 -8 -341 -13 -45 -22 -45 -24 -50 -591 l-5 -540 -293 508 c-162 280 -290
512 -285 517 4 4 238 141 518 303 494 285 510 294 522 273 7 -12 68 -119 136
-237z m-313 -1660 l0 -1250 -45 0 -45 0 0 1250 0 1250 45 0 45 0 0 -1250z
m3850 252 l0 -999 -52 -12 c-203 -46 -396 -239 -438 -438 l-12 -53 -1328 0
-1328 0 -12 53 c-47 204 -238 395 -437 437 l-53 12 0 999 0 999 1830 0 1830 0
0 -998z m-4162 -283 l32 -56 0 -582 0 -581 -45 0 -45 0 0 657 c0 550 2 654 13
638 8 -11 28 -45 45 -76z m591 -940 c34 -17 84 -53 111 -79 44 -45 110 -156
110 -187 0 -10 -32 -13 -155 -13 l-155 0 0 155 c0 123 3 155 13 155 8 0 42
-14 76 -31z m3571 -124 l0 -155 -155 0 c-123 0 -155 3 -155 13 0 31 66 142
110 187 45 44 156 110 187 110 10 0 13 -32 13 -155z"/>
<path d="M2215 2626 c-111 -64 -581 -390 -592 -409 -20 -37 -15 -74 15 -106
15 -16 156 -115 313 -220 l285 -191 1117 0 c1099 0 1117 0 1137 20 42 42 95
207 111 345 16 133 1 275 -42 408 -36 112 -60 154 -95 167 -16 6 -432 10
-1117 10 l-1092 0 -40 -24z m1728 -219 c9 -30 21 -75 26 -100 l8 -47 -767 0
-768 0 -11 73 c-6 39 -14 84 -17 100 l-6 27 759 0 759 0 17 -53z m449 -19 c20
-62 23 -95 23 -218 0 -123 -3 -156 -23 -217 l-23 -73 -123 0 -122 0 19 73 c26
98 28 322 4 420 -9 38 -17 72 -17 78 0 5 52 9 120 9 l119 0 23 -72z m-2139
-203 c1 -68 -4 -149 -12 -187 l-13 -67 -49 32 c-43 27 -49 36 -44 57 29 133
29 200 -1 306 -4 17 4 27 43 52 l48 32 13 -53 c8 -28 15 -106 15 -172z m1716
-152 c-5 -25 -17 -70 -26 -100 l-17 -53 -759 0 -759 0 6 28 c3 15 11 60 17
100 l11 72 768 0 767 0 -8 -47z"/>
</g>
</svg>
