<?xml version="1.0" standalone="no"?>
<!DOCTYPE svg PUBLIC "-//W3C//DTD SVG 20010904//EN"
 "http://www.w3.org/TR/2001/REC-SVG-20010904/DTD/svg10.dtd">
<svg version="1.0" xmlns="http://www.w3.org/2000/svg"
 width="512.000000pt" height="512.000000pt" viewBox="0 0 512.000000 512.000000"
 preserveAspectRatio="xMidYMid meet">
<metadata>
Created by potrace 1.15, written by Peter Selinger 2001-2017
</metadata>
<g transform="translate(0.000000,512.000000) scale(0.100000,-0.100000)"
fill="#000000" stroke="none">
<path d="M2794 4621 c-18 -11 -39 -30 -48 -42 -9 -13 -93 -256 -188 -540
l-172 -516 -125 -12 c-388 -37 -738 -134 -1052 -291 l-99 -50 -56 45 c-277
226 -706 182 -920 -96 -53 -70 -107 -182 -123 -257 -16 -77 -14 -234 5 -305
34 -134 126 -269 239 -352 l67 -49 -7 -85 c-14 -182 28 -380 120 -566 263
-530 951 -921 1775 -1010 158 -17 522 -20 671 -5 729 74 1348 376 1685 823
169 224 259 508 239 757 l-7 86 70 51 c115 84 201 211 236 349 20 79 20 239 1
323 -48 203 -221 387 -425 452 -92 30 -246 36 -342 15 -95 -21 -197 -70 -270
-129 l-56 -47 -145 70 c-299 145 -682 245 -1048 275 l-85 7 125 374 c69 206
131 374 136 374 6 0 161 -44 345 -98 l335 -98 7 -63 c25 -224 194 -419 414
-476 75 -19 213 -19 288 0 142 37 288 149 353 271 49 92 67 166 67 274 0 194
-81 351 -237 461 -98 69 -197 99 -326 99 -168 0 -282 -48 -402 -169 l-75 -76
-425 122 c-262 76 -441 123 -469 123 -27 0 -58 -8 -76 -19z m1534 -327 c127
-53 181 -204 116 -324 -50 -92 -158 -144 -250 -121 -187 47 -249 267 -112 398
18 18 49 39 68 47 46 20 131 20 178 0z m-1477 -1114 c823 -82 1469 -484 1599
-995 28 -109 28 -262 0 -370 -124 -486 -699 -866 -1485 -982 -153 -22 -628
-25 -775 -5 -619 88 -1105 325 -1362 666 -241 320 -241 693 2 1015 270 357
839 620 1465 674 95 8 461 6 556 -3z m-2083 -176 c28 -12 52 -25 52 -27 0 -2
-43 -47 -96 -98 -102 -100 -198 -220 -260 -326 l-38 -65 -28 33 c-46 56 -70
133 -66 214 4 84 32 146 91 205 96 97 220 120 345 64z m3838 1 c64 -28 123
-86 155 -151 49 -102 32 -246 -39 -333 l-28 -33 -43 71 c-66 111 -151 218
-255 320 -53 51 -96 95 -96 97 0 8 70 39 115 50 62 16 125 9 191 -21z"/>
<path d="M1633 2540 c-61 -25 -129 -90 -163 -157 -35 -69 -40 -186 -11 -264
29 -76 104 -151 180 -180 77 -29 195 -24 265 10 200 98 243 363 86 519 -68 68
-110 85 -215 89 -72 2 -100 -1 -142 -17z"/>
<path d="M3243 2544 c-57 -21 -138 -96 -171 -158 -24 -45 -27 -62 -27 -146 0
-82 4 -102 25 -144 56 -109 148 -168 272 -174 142 -7 246 51 308 172 31 61 35
77 34 145 0 123 -53 217 -159 281 -53 31 -65 34 -149 37 -63 2 -104 -2 -133
-13z"/>
<path d="M1700 1689 c-62 -26 -100 -85 -100 -157 0 -87 60 -147 239 -240 252
-131 574 -197 842 -172 272 26 530 112 723 241 91 60 120 103 120 174 0 67
-30 117 -90 146 -58 28 -109 22 -178 -22 -139 -89 -257 -140 -419 -180 -117
-29 -351 -37 -474 -15 -181 31 -361 102 -485 189 -61 43 -129 57 -178 36z"/>
</g>
</svg>
