<?xml version="1.0" standalone="no"?>
<!DOCTYPE svg PUBLIC "-//W3C//DTD SVG 20010904//EN"
 "http://www.w3.org/TR/2001/REC-SVG-20010904/DTD/svg10.dtd">
<svg version="1.0" xmlns="http://www.w3.org/2000/svg"
 width="512.000000pt" height="512.000000pt" viewBox="0 0 512.000000 512.000000"
 preserveAspectRatio="xMidYMid meet">
<metadata>
Created by potrace 1.15, written by Peter Selinger 2001-2017
</metadata>
<g transform="translate(0.000000,512.000000) scale(0.100000,-0.100000)"
fill="#000000" stroke="none">
<path d="M3836 4609 c-88 -16 -163 -30 -166 -31 -7 -3 286 -1708 295 -1717 5
-5 364 54 370 61 3 3 -276 1634 -290 1696 -7 28 -9 28 -209 -9z"/>
<path d="M2762 4178 c-83 -57 -152 -107 -152 -111 0 -4 219 -328 486 -720 326
-477 491 -712 503 -711 20 1 301 193 301 206 0 12 -968 1432 -978 1436 -4 1
-76 -44 -160 -100z"/>
<path d="M1930 3294 c-50 -86 -89 -161 -87 -167 5 -11 1469 -879 1491 -884 16
-4 201 316 189 328 -13 13 -1483 879 -1492 879 -5 0 -50 -70 -101 -156z"/>
<path d="M1616 2548 c-51 -181 -85 -312 -82 -315 11 -12 1680 -453 1686 -446
7 8 101 355 97 359 -1 1 -373 102 -827 224 -454 122 -833 223 -842 226 -14 4
-20 -6 -32 -48z"/>
<path d="M870 1130 l0 -910 1443 2 1442 3 3 908 2 907 -155 0 -155 0 0 -760 0
-760 -1135 0 -1135 0 0 760 0 760 -155 0 -155 0 0 -910z"/>
<path d="M1457 1633 c-9 -103 -16 -188 -14 -189 4 -4 1732 -162 1735 -159 5 4
40 369 36 374 -3 3 -1678 160 -1719 161 -19 0 -22 -11 -38 -187z"/>
<path d="M1420 1000 l0 -190 870 0 870 0 0 190 0 190 -870 0 -870 0 0 -190z"/>
</g>
</svg>
