<?xml version="1.0" standalone="no"?>
<!DOCTYPE svg PUBLIC "-//W3C//DTD SVG 20010904//EN"
 "http://www.w3.org/TR/2001/REC-SVG-20010904/DTD/svg10.dtd">
<svg version="1.0" xmlns="http://www.w3.org/2000/svg"
 width="512.000000pt" height="512.000000pt" viewBox="0 0 512.000000 512.000000"
 preserveAspectRatio="xMidYMid meet">
<metadata>
Created by potrace 1.15, written by Peter Selinger 2001-2017
</metadata>
<g transform="translate(0.000000,512.000000) scale(0.100000,-0.100000)"
fill="#000000" stroke="none">
<path d="M2475 5090 c-82 -9 -181 -44 -253 -88 -73 -44 -2015 -1625 -2063
-1679 -54 -60 -99 -137 -127 -215 -34 -96 -42 -271 -18 -368 51 -204 209 -377
408 -447 106 -38 264 -44 371 -14 43 12 104 34 135 50 63 32 76 42 977 776
351 286 643 520 649 519 6 -1 342 -270 746 -600 840 -684 838 -683 915 -718
123 -56 276 -73 411 -46 221 44 421 238 479 465 19 76 19 231 0 314 -21 87
-84 204 -147 273 -51 54 -1958 1613 -2049 1675 -122 81 -284 120 -434 103z"/>
<path d="M2480 2870 c-64 -7 -165 -37 -225 -67 -52 -26 -115 -77 -1108 -886
-671 -547 -981 -806 -1012 -844 -54 -70 -101 -165 -120 -246 -19 -81 -19 -237
0 -312 56 -221 245 -408 465 -459 151 -36 329 -12 463 62 40 22 377 290 838
666 l770 628 42 -33 c23 -18 368 -299 767 -624 399 -325 745 -604 770 -621
101 -69 222 -106 355 -107 113 -1 177 14 285 65 160 76 290 237 335 413 18 69
20 221 4 297 -19 91 -91 227 -156 294 -56 57 -1935 1592 -2038 1665 -122 86
-277 125 -435 109z"/>
</g>
</svg>
