<?xml version="1.0" standalone="no"?>
<!DOCTYPE svg PUBLIC "-//W3C//DTD SVG 20010904//EN"
 "http://www.w3.org/TR/2001/REC-SVG-20010904/DTD/svg10.dtd">
<svg version="1.0" xmlns="http://www.w3.org/2000/svg"
 width="512.000000pt" height="512.000000pt" viewBox="0 0 512.000000 512.000000"
 preserveAspectRatio="xMidYMid meet">
<metadata>
Created by potrace 1.15, written by Peter Selinger 2001-2017
</metadata>
<g transform="translate(0.000000,512.000000) scale(0.100000,-0.100000)"
fill="#000000" stroke="none">
<path d="M270 4488 c-13 -5 -28 -14 -32 -21 -10 -16 -10 -3798 0 -3814 4 -6
20 -17 35 -22 41 -16 3972 -15 4016 0 34 12 47 42 37 82 -9 39 -45 47 -201 47
l-145 0 0 106 c0 104 0 105 -22 102 -22 -3 -23 -8 -26 -105 l-3 -103 -174 0
-175 0 0 89 c0 103 -5 121 -31 121 -17 0 -19 -9 -19 -105 l0 -105 -180 0 -179
0 -3 103 c-3 97 -4 102 -25 105 -23 3 -23 2 -23 -102 l0 -106 -180 0 -180 0 0
106 c0 104 0 105 -23 102 -21 -3 -22 -8 -25 -105 l-3 -103 -174 0 -174 0 -3
103 c-3 97 -4 102 -25 105 -23 3 -23 2 -23 -102 l0 -106 -180 0 -179 0 -3 103
c-3 94 -4 102 -23 102 -19 0 -20 -8 -23 -102 l-3 -103 -179 0 -180 0 0 106 c0
104 0 105 -22 102 -22 -3 -23 -8 -26 -105 l-3 -103 -174 0 -174 0 -3 103 c-3
97 -4 102 -25 105 -23 3 -23 2 -23 -102 l0 -106 -365 0 -365 0 0 225 0 225 91
0 c88 0 90 1 87 23 -3 21 -8 22 -90 25 l-88 3 0 174 0 175 74 0 c87 0 106 5
106 31 0 17 -8 19 -90 19 l-90 0 0 180 0 179 88 3 c79 3 87 5 87 23 0 18 -8
20 -87 23 l-88 3 0 179 0 180 91 0 c88 0 90 1 87 23 -3 21 -8 22 -90 25 l-88
3 0 174 0 174 88 3 c82 3 87 4 90 26 3 21 1 22 -87 22 l-91 0 0 180 0 179 88
3 c79 3 87 5 87 23 0 18 -8 20 -87 23 l-88 3 0 179 0 180 90 0 c82 0 90 2 90
19 0 26 -19 31 -106 31 l-74 0 0 175 0 174 88 3 c82 3 87 4 90 26 3 21 1 22
-87 22 l-91 0 0 173 c0 136 -3 177 -15 194 -18 26 -43 33 -75 21z"/>
<path d="M2829 4184 c-331 -59 -602 -292 -713 -610 -37 -105 -49 -187 -48
-319 2 -313 151 -589 413 -764 169 -114 329 -156 553 -148 193 7 332 50 480
148 l49 33 571 -577 c428 -433 579 -580 603 -587 76 -21 153 36 153 114 0 23
-8 53 -17 66 -9 14 -268 280 -575 591 l-558 566 49 82 c98 162 134 295 134
491 0 267 -88 479 -278 665 -213 209 -520 303 -816 249z m349 -255 c215 -57
391 -222 469 -441 35 -98 43 -262 18 -372 -52 -237 -236 -433 -475 -508 -62
-19 -96 -23 -200 -22 -110 0 -135 3 -205 28 -120 41 -181 80 -275 175 -63 63
-95 106 -123 161 -147 295 -77 641 171 846 176 145 396 192 620 133z"/>
<path d="M2930 3751 l0 -60 -50 -22 c-67 -29 -115 -83 -128 -146 -6 -27 -9
-58 -7 -69 2 -10 6 -31 10 -47 10 -48 74 -107 165 -152 113 -55 136 -71 150
-104 16 -40 -7 -93 -49 -111 -43 -17 -136 -8 -190 20 -24 12 -48 19 -54 17 -7
-3 -20 -28 -30 -57 -14 -39 -16 -55 -7 -65 16 -19 114 -55 150 -55 29 0 29 -1
32 -62 l3 -63 55 0 55 0 3 61 3 62 42 16 c52 19 113 77 133 124 8 19 14 61 14
94 0 108 -53 173 -193 238 -49 22 -99 51 -113 65 -31 31 -31 69 2 102 24 24
31 25 92 21 37 -3 82 -13 100 -22 41 -21 53 -13 77 50 15 39 15 48 4 59 -16
15 -101 45 -129 45 -16 0 -19 9 -22 58 l-3 57 -57 3 -58 3 0 -60z"/>
<path d="M860 2560 l0 -1380 215 0 215 0 0 1380 0 1380 -215 0 -215 0 0 -1380z"/>
<path d="M1750 2025 l0 -845 210 0 210 0 0 736 0 735 -39 57 c-21 31 -50 81
-65 110 l-26 52 -145 0 -145 0 0 -845z"/>
<path d="M3537 2384 c-4 -4 -7 -277 -7 -606 l0 -598 215 0 215 0 0 402 0 401
-197 201 c-109 111 -203 202 -208 204 -6 1 -14 0 -18 -4z"/>
<path d="M2620 1741 l0 -561 215 0 215 0 0 531 c0 530 0 531 -20 526 -50 -13
-240 16 -387 59 l-23 6 0 -561z"/>
</g>
</svg>
