<?xml version="1.0" standalone="no"?>
<!DOCTYPE svg PUBLIC "-//W3C//DTD SVG 20010904//EN"
 "http://www.w3.org/TR/2001/REC-SVG-20010904/DTD/svg10.dtd">
<svg version="1.0" xmlns="http://www.w3.org/2000/svg"
 width="512.000000pt" height="512.000000pt" viewBox="0 0 512.000000 512.000000"
 preserveAspectRatio="xMidYMid meet">
<metadata>
Created by potrace 1.15, written by Peter Selinger 2001-2017
</metadata>
<g transform="translate(0.000000,512.000000) scale(0.100000,-0.100000)"
fill="#000000" stroke="none">
<path d="M765 4371 c-418 -257 -760 -473 -760 -479 0 -12 949 -792 963 -792
16 1 1527 927 1527 936 0 11 -937 792 -958 799 -7 2 -354 -206 -772 -464z"/>
<path d="M3103 4443 c-263 -218 -478 -401 -478 -407 0 -9 1512 -936 1528 -936
15 0 967 784 964 794 -3 10 -1515 945 -1529 946 -3 0 -221 -178 -485 -397z"/>
<path d="M510 2581 c-239 -203 -436 -373 -437 -377 -4 -12 1446 -859 1469
-859 16 0 858 721 858 734 -1 9 -1420 866 -1439 869 -9 1 -210 -163 -451 -367z"/>
<path d="M3433 2517 c-392 -238 -713 -435 -713 -438 0 -14 843 -734 860 -734
18 0 1470 846 1470 856 0 12 -872 744 -888 746 -9 1 -338 -192 -729 -430z"/>
<path d="M2012 1606 c-265 -218 -487 -396 -493 -396 -5 0 -117 58 -249 130
-132 71 -242 130 -245 130 -3 0 -5 -64 -5 -143 l0 -143 736 -452 c405 -249
739 -451 740 -449 2 2 3 390 2 861 l-3 858 -483 -396z"/>
<path d="M2620 1140 l0 -862 48 29 c27 15 360 219 740 453 l692 425 0 142 c0
79 -2 143 -5 143 -3 0 -113 -58 -245 -130 -132 -71 -244 -130 -250 -130 -5 0
-222 175 -483 388 -260 213 -478 391 -485 396 -9 6 -12 -179 -12 -854z"/>
</g>
</svg>
