<?xml version="1.0" standalone="no"?>
<!DOCTYPE svg PUBLIC "-//W3C//DTD SVG 20010904//EN"
 "http://www.w3.org/TR/2001/REC-SVG-20010904/DTD/svg10.dtd">
<svg version="1.0" xmlns="http://www.w3.org/2000/svg"
 width="512.000000pt" height="512.000000pt" viewBox="0 0 512.000000 512.000000"
 preserveAspectRatio="xMidYMid meet">
<metadata>
Created by potrace 1.15, written by Peter Selinger 2001-2017
</metadata>
<g transform="translate(0.000000,512.000000) scale(0.100000,-0.100000)"
fill="#000000" stroke="none">
<path d="M2305 5113 c-451 -56 -817 -187 -1158 -413 -609 -405 -1003 -1020
-1124 -1755 -14 -88 -18 -166 -18 -395 0 -253 3 -300 23 -413 80 -448 261
-847 539 -1192 100 -124 308 -327 433 -422 339 -257 719 -421 1144 -494 154
-27 511 -37 683 -19 812 82 1531 548 1954 1265 175 298 293 663 329 1019 16
152 8 526 -14 656 -74 440 -233 814 -497 1166 -84 112 -329 364 -434 446 -402
314 -845 497 -1327 548 -90 9 -465 12 -533 3z m440 -324 c949 -82 1746 -757
1979 -1677 52 -202 60 -280 60 -547 0 -266 -7 -337 -60 -546 -174 -697 -687
-1278 -1361 -1543 -118 -46 -173 -48 -213 -8 l-28 29 -5 399 c-4 338 -7 408
-22 459 -20 73 -57 147 -91 188 l-26 31 109 18 c299 50 499 142 650 301 175
185 255 427 255 776 0 123 -4 161 -25 242 -29 111 -86 230 -149 311 l-45 58
15 52 c10 36 16 99 16 193 0 116 -3 155 -22 225 -13 47 -30 96 -39 109 -14 22
-19 23 -83 17 -125 -11 -270 -67 -439 -169 l-94 -57 -111 24 c-174 39 -278 50
-456 50 -178 0 -283 -11 -455 -49 l-110 -25 -80 49 c-171 104 -328 166 -452
177 -67 6 -72 5 -86 -17 -9 -13 -26 -62 -39 -109 -19 -71 -23 -108 -22 -230 0
-104 5 -159 16 -193 l16 -47 -34 -41 c-76 -91 -141 -230 -170 -361 -19 -87
-22 -313 -5 -435 36 -255 123 -438 280 -585 92 -86 192 -146 326 -194 93 -33
316 -84 369 -84 32 0 32 -5 0 -42 -37 -45 -72 -118 -92 -195 l-17 -67 -75 -25
c-104 -33 -250 -35 -330 -3 -83 33 -149 89 -210 177 -119 173 -229 254 -358
262 -102 7 -138 -14 -116 -71 3 -8 43 -43 89 -76 102 -76 150 -138 227 -298
73 -151 135 -220 248 -275 109 -54 199 -70 345 -63 66 3 132 9 148 12 l27 6 0
-208 c0 -183 -3 -212 -18 -230 -43 -54 -100 -57 -220 -10 -689 266 -1204 858
-1375 1581 -74 313 -76 668 -6 995 70 322 245 677 461 935 160 191 378 379
575 495 406 240 872 349 1328 309z"/>
</g>
</svg>
