<?xml version="1.0" standalone="no"?>
<!DOCTYPE svg PUBLIC "-//W3C//DTD SVG 20010904//EN"
 "http://www.w3.org/TR/2001/REC-SVG-20010904/DTD/svg10.dtd">
<svg version="1.0" xmlns="http://www.w3.org/2000/svg"
 width="512.000000pt" height="512.000000pt" viewBox="0 0 512.000000 512.000000"
 preserveAspectRatio="xMidYMid meet">
<metadata>
Created by potrace 1.15, written by Peter Selinger 2001-2017
</metadata>
<g transform="translate(0.000000,512.000000) scale(0.100000,-0.100000)"
fill="#000000" stroke="none">
<path d="M785 4579 c-265 -40 -427 -220 -427 -474 0 -195 91 -346 257 -425 85
-41 144 -53 260 -53 253 -1 435 115 504 321 25 73 28 209 7 287 -44 166 -177
293 -346 333 -69 16 -189 21 -255 11z"/>
<path d="M3565 3314 c-231 -27 -391 -83 -541 -190 -70 -49 -156 -139 -184
-193 l-19 -36 -1 198 0 197 -485 0 -485 0 0 -1375 0 -1375 485 0 485 0 2 838
3 838 38 77 c43 87 128 185 194 224 69 40 156 63 241 63 233 0 387 -129 458
-380 17 -60 18 -128 22 -862 l3 -798 490 0 490 0 -4 893 c-3 869 -4 895 -25
991 -101 466 -355 755 -753 856 -123 32 -305 46 -414 34z"/>
<path d="M470 1915 l0 -1375 430 0 430 0 0 1375 0 1375 -430 0 -430 0 0 -1375z"/>
</g>
</svg>
