<?xml version="1.0" standalone="no"?>
<!DOCTYPE svg PUBLIC "-//W3C//DTD SVG 20010904//EN"
 "http://www.w3.org/TR/2001/REC-SVG-20010904/DTD/svg10.dtd">
<svg version="1.0" xmlns="http://www.w3.org/2000/svg"
 width="512.000000pt" height="512.000000pt" viewBox="0 0 512.000000 512.000000"
 preserveAspectRatio="xMidYMid meet">
<metadata>
Created by potrace 1.15, written by Peter Selinger 2001-2017
</metadata>
<g transform="translate(0.000000,512.000000) scale(0.100000,-0.100000)"
fill="#000000" stroke="none">
<path d="M1430 4821 c-51 -27 -73 -62 -78 -126 l-4 -55 -253 0 c-218 0 -262
-3 -329 -20 -115 -29 -209 -83 -291 -165 -86 -86 -131 -162 -162 -267 l-23
-80 0 -1547 c0 -1710 -4 -1587 66 -1731 49 -99 169 -220 269 -272 135 -70 157
-73 563 -73 l364 0 29 33 c39 44 39 90 0 134 l-29 33 -364 6 c-215 3 -375 9
-393 16 -98 34 -195 111 -242 191 -14 23 -34 70 -44 103 -18 58 -19 120 -19
1558 0 1636 -3 1558 57 1661 62 105 179 186 303 210 36 7 133 8 278 4 l222 -7
0 -39 c0 -47 20 -87 59 -121 93 -78 239 -14 256 112 l7 51 519 0 519 0 0 -44
c0 -83 68 -150 153 -150 91 0 150 53 163 148 l7 46 257 0 c231 0 265 -2 324
-20 141 -44 253 -169 285 -318 7 -35 11 -203 11 -483 l0 -431 29 -29 c42 -41
101 -41 142 1 l30 30 -4 467 c-3 409 -6 476 -21 528 -41 141 -144 282 -264
361 -31 21 -95 51 -142 68 l-85 30 -281 4 -282 4 -6 47 c-12 91 -67 141 -156
141 -95 0 -160 -60 -160 -147 l0 -43 -519 0 -518 0 -7 49 c-16 121 -134 187
-236 132z"/>
<path d="M1171 3426 c-28 -16 -50 -52 -51 -84 0 -31 26 -79 49 -92 13 -7 358
-10 1035 -10 l1015 0 28 24 c23 20 28 32 28 71 0 40 -5 51 -33 76 l-32 29
-1008 0 c-817 -1 -1012 -3 -1031 -14z"/>
<path d="M4459 3047 c-63 -24 -101 -53 -209 -162 l-105 -105 200 -200 200
-200 118 117 c65 64 128 135 139 157 29 57 35 150 13 216 -21 62 -81 132 -140
162 -50 26 -165 34 -216 15z m156 -220 c25 -36 18 -65 -30 -115 l-44 -47 -61
60 -61 60 42 37 c24 20 52 39 64 40 30 5 74 -11 90 -35z"/>
<path d="M3174 1824 c-467 -461 -854 -847 -860 -858 -23 -40 -294 -665 -294
-676 0 -7 4 -10 8 -8 5 2 164 70 353 152 l344 149 110 106 c60 58 442 436 850
838 l740 733 -65 65 c-35 36 -69 65 -75 65 -5 0 -390 -376 -855 -834 l-845
-834 -61 60 -61 60 406 402 c223 221 604 597 846 836 242 239 441 437 443 440
1 3 -29 36 -66 73 l-69 68 -849 -837z"/>
<path d="M1155 2537 c-18 -15 -28 -36 -32 -64 -5 -39 -2 -46 30 -78 l35 -35
662 2 662 3 24 28 c34 40 34 108 -1 142 l-24 25 -665 0 -665 0 -26 -23z"/>
</g>
</svg>
