<?xml version="1.0" standalone="no"?>
<!DOCTYPE svg PUBLIC "-//W3C//DTD SVG 20010904//EN"
 "http://www.w3.org/TR/2001/REC-SVG-20010904/DTD/svg10.dtd">
<svg version="1.0" xmlns="http://www.w3.org/2000/svg"
 width="256.000000pt" height="256.000000pt" viewBox="0 0 256.000000 256.000000"
 preserveAspectRatio="xMidYMid meet">
<metadata>
Created by potrace 1.15, written by Peter Selinger 2001-2017
</metadata>
<g transform="translate(0.000000,256.000000) scale(0.100000,-0.100000)"
fill="#000000" stroke="none">
<path d="M1766 2384 c-108 -20 -265 -73 -373 -127 -97 -49 -257 -152 -287
-186 -39 -43 -49 -15 -16 48 11 22 22 57 26 80 6 36 3 43 -24 71 -45 44 -95
41 -191 -10 -137 -75 -273 -199 -361 -329 -41 -62 -109 -210 -110 -241 0 -8
-9 4 -19 26 -29 65 -82 90 -131 64 -23 -12 -101 -145 -140 -240 -58 -140 -82
-251 -87 -413 -7 -196 18 -343 80 -464 16 -29 15 -32 -23 -104 -56 -105 -74
-195 -68 -338 6 -126 21 -178 59 -205 20 -14 56 -16 241 -16 213 0 217 0 232
22 22 31 20 64 -4 88 -18 18 -33 20 -165 20 -129 0 -146 2 -153 18 -4 9 -7 60
-7 112 1 78 5 106 26 155 15 38 30 59 39 58 8 -1 49 -9 90 -18 59 -13 106 -16
225 -12 205 8 353 43 530 126 97 46 126 75 132 134 7 62 -23 95 -113 123 l-69
22 65 1 c145 3 303 49 405 116 114 76 192 178 372 485 133 227 282 350 488
404 115 29 130 83 63 217 -127 256 -400 373 -732 313z m337 -212 c39 -18 85
-50 112 -78 76 -78 77 -75 -28 -127 -177 -88 -275 -194 -447 -483 -149 -251
-210 -318 -342 -379 -100 -46 -191 -57 -393 -51 -99 4 -185 3 -191 -1 -66 -46
-32 -202 62 -281 24 -20 44 -39 44 -43 0 -12 -171 -48 -278 -59 -178 -19 -294
15 -340 97 -12 23 -32 79 -43 124 -18 71 -21 102 -16 219 5 120 31 266 54 304
3 5 14 -6 24 -25 39 -75 123 -173 156 -182 53 -16 97 -1 119 38 16 31 17 41 6
93 -28 134 -10 237 68 398 41 84 134 213 146 202 2 -2 -3 -40 -11 -83 -8 -44
-14 -115 -15 -158 0 -74 2 -80 29 -108 22 -22 39 -29 68 -29 51 0 77 20 108
82 89 177 350 393 605 498 128 53 212 70 331 67 93 -3 113 -7 172 -35z"/>
<path d="M812 164 c-29 -20 -30 -76 -2 -104 19 -19 33 -20 540 -20 l521 0 24
25 c32 31 32 59 0 90 l-24 25 -518 0 c-453 0 -521 -2 -541 -16z"/>
</g>
</svg>
