<?xml version="1.0" standalone="no"?>
<!DOCTYPE svg PUBLIC "-//W3C//DTD SVG 20010904//EN"
 "http://www.w3.org/TR/2001/REC-SVG-20010904/DTD/svg10.dtd">
<svg version="1.0" xmlns="http://www.w3.org/2000/svg"
 width="187.000000pt" height="190.000000pt" viewBox="0 0 187.000000 190.000000"
 preserveAspectRatio="xMidYMid meet">
<metadata>
Created by potrace 1.15, written by Peter Selinger 2001-2017
</metadata>
<g transform="translate(0.000000,190.000000) scale(0.100000,-0.100000)"
fill="#000000" stroke="none">
<path d="M655 1886 c-342 -67 -587 -321 -646 -671 -14 -84 -6 -255 16 -340 24
-89 97 -231 155 -302 70 -86 159 -156 265 -208 113 -56 184 -75 310 -82 117
-6 227 11 330 52 l67 27 157 -155 c177 -175 214 -199 306 -199 77 0 138 25
186 79 46 50 63 101 63 178 -1 91 -27 130 -201 306 l-154 156 20 47 c45 104
55 165 55 321 0 141 -2 156 -32 245 -88 267 -301 469 -562 534 -91 23 -249 29
-335 12z m321 -129 c115 -33 207 -88 295 -176 85 -85 139 -173 177 -289 20
-63 25 -98 26 -192 1 -139 -11 -194 -71 -320 -39 -81 -59 -108 -132 -181 -142
-140 -287 -202 -476 -202 -190 0 -335 62 -475 202 -95 95 -142 173 -181 301
-34 109 -33 283 3 392 38 116 92 204 177 289 136 136 283 198 472 198 83 1
125 -4 185 -22z"/>
<path d="M295 1458 c-3 -7 -4 -177 -3 -378 l3 -365 500 0 500 0 0 30 c0 29 -2
30 -47 33 l-48 3 0 223 c0 254 1 249 -77 244 l-48 -3 -3 -232 -2 -233 -40 0
-40 0 0 134 c0 154 -2 159 -77 154 l-48 -3 -3 -142 -3 -143 -39 0 -40 0 0 188
c0 133 -4 192 -12 200 -16 16 -90 16 -106 0 -8 -8 -12 -67 -12 -200 l0 -188
-40 0 -40 0 0 78 c0 88 -8 102 -58 102 -64 0 -72 -11 -72 -100 l0 -80 -40 0
-40 0 -2 343 -3 342 -28 3 c-16 2 -29 -2 -32 -10z"/>
<path d="M1093 1439 c-62 -19 -75 -33 -51 -57 12 -12 -2 -33 -80 -122 l-40
-45 -23 21 c-13 11 -63 55 -112 99 -48 43 -89 76 -90 74 -2 -2 -58 -68 -125
-145 -67 -78 -122 -146 -122 -151 0 -5 11 -20 24 -32 l25 -23 29 33 c16 19 63
73 104 120 l75 87 106 -94 c58 -52 110 -94 115 -94 5 0 50 47 98 104 56 66 93
101 99 95 5 -5 16 -9 25 -9 12 0 20 16 28 64 20 109 21 109 -85 75z"/>
</g>
</svg>
