<?xml version="1.0" standalone="no"?>
<!DOCTYPE svg PUBLIC "-//W3C//DTD SVG 20010904//EN"
 "http://www.w3.org/TR/2001/REC-SVG-20010904/DTD/svg10.dtd">
<svg version="1.0" xmlns="http://www.w3.org/2000/svg"
 width="512.000000pt" height="512.000000pt" viewBox="0 0 512.000000 512.000000"
 preserveAspectRatio="xMidYMid meet">
<metadata>
Created by potrace 1.15, written by Peter Selinger 2001-2017
</metadata>
<g transform="translate(0.000000,512.000000) scale(0.100000,-0.100000)"
fill="#000000" stroke="none">
<path d="M1904 4786 c-109 -21 -182 -44 -269 -87 -171 -83 -334 -247 -421
-425 -75 -153 -130 -414 -141 -664 -5 -114 -10 -150 -23 -170 -51 -72 -75
-187 -59 -274 21 -115 88 -224 154 -252 26 -11 32 -21 48 -81 10 -38 37 -109
62 -158 40 -81 53 -98 139 -173 124 -108 139 -138 144 -289 5 -142 -10 -191
-81 -269 -103 -113 -243 -186 -496 -259 -192 -55 -272 -84 -361 -131 -131 -68
-203 -155 -234 -280 -19 -74 -36 -251 -36 -365 0 -176 40 -355 86 -386 140
-91 1333 -217 1889 -198 318 10 565 30 750 61 139 23 137 20 41 74 -124 69
-210 133 -303 224 -137 132 -216 262 -268 441 -113 390 -55 739 177 1063 54
76 74 115 95 182 33 111 46 135 105 198 55 58 105 158 133 265 16 61 22 70 54
87 97 49 152 166 154 323 1 89 -15 142 -57 187 -22 23 -24 36 -30 185 -12 331
-104 640 -247 829 -111 146 -306 267 -529 327 -97 27 -369 35 -476 15z"/>
<path d="M3655 2520 c-282 -30 -571 -201 -724 -429 -333 -493 -188 -1158 319
-1457 168 -100 312 -137 520 -137 161 0 239 13 367 63 356 137 610 474 642
852 48 572 -342 1049 -908 1109 -95 10 -115 10 -216 -1z m174 -367 c14 -11 36
-39 49 -63 20 -41 22 -57 22 -232 l0 -188 203 0 c191 0 204 -2 242 -23 54 -31
85 -79 85 -134 0 -57 -21 -96 -65 -123 -34 -21 -45 -22 -250 -21 l-215 2 0
-194 c0 -182 -1 -196 -23 -238 -30 -57 -98 -95 -154 -84 -47 8 -98 59 -112
110 -6 22 -11 121 -11 222 l0 181 -187 4 c-164 3 -193 6 -228 23 -81 40 -96
139 -32 212 50 57 75 63 272 63 l175 0 0 184 c0 110 5 197 11 217 13 38 54 86
84 100 30 13 104 4 134 -18z"/>
</g>
</svg>
