<?xml version="1.0" standalone="no"?>
<!DOCTYPE svg PUBLIC "-//W3C//DTD SVG 20010904//EN"
 "http://www.w3.org/TR/2001/REC-SVG-20010904/DTD/svg10.dtd">
<svg version="1.0" xmlns="http://www.w3.org/2000/svg"
 width="512.000000pt" height="512.000000pt" viewBox="0 0 512.000000 512.000000"
 preserveAspectRatio="xMidYMid meet">
<metadata>
Created by potrace 1.15, written by Peter Selinger 2001-2017
</metadata>
<g transform="translate(0.000000,512.000000) scale(0.100000,-0.100000)"
fill="#000000" stroke="none">
<path d="M312 4273 l3 -438 165 -6 c757 -30 1520 -325 2117 -820 614 -510
1050 -1213 1227 -1979 54 -236 96 -571 96 -767 l0 -63 437 0 436 0 -6 168
c-37 982 -375 1893 -985 2656 -737 921 -1794 1510 -2962 1651 -108 13 -419 34
-503 35 l-27 0 2 -437z"/>
<path d="M300 2747 l0 -433 153 -12 c412 -33 770 -165 1091 -403 496 -369 799
-921 847 -1547 l12 -152 434 0 433 0 0 54 c0 96 -20 308 -41 436 -37 224 -91
419 -176 630 -352 877 -1108 1539 -2023 1770 -198 50 -492 90 -667 90 l-63 0
0 -433z"/>
<path d="M752 1390 c-263 -69 -442 -299 -445 -570 -2 -182 50 -310 177 -435
134 -133 259 -181 451 -172 127 6 202 28 293 86 174 113 275 295 276 501 1
113 -14 179 -61 279 -44 93 -158 211 -250 259 -133 70 -298 89 -441 52z"/>
</g>
</svg>
