<?xml version="1.0" standalone="no"?>
<!DOCTYPE svg PUBLIC "-//W3C//DTD SVG 20010904//EN"
 "http://www.w3.org/TR/2001/REC-SVG-20010904/DTD/svg10.dtd">
<svg version="1.0" xmlns="http://www.w3.org/2000/svg"
 width="512.000000pt" height="512.000000pt" viewBox="0 0 512.000000 512.000000"
 preserveAspectRatio="xMidYMid meet">
<metadata>
Created by potrace 1.15, written by Peter Selinger 2001-2017
</metadata>
<g transform="translate(0.000000,512.000000) scale(0.100000,-0.100000)"
fill="#000000" stroke="none">
<path d="M3448 4639 c-291 -24 -567 -178 -750 -419 -155 -203 -233 -505 -199
-764 7 -48 10 -91 7 -94 -4 -3 -59 0 -124 6 -613 60 -1185 306 -1657 713 -103
88 -264 251 -324 327 -19 23 -38 42 -43 42 -4 0 -19 -22 -33 -49 -179 -355
-142 -797 95 -1112 48 -64 159 -176 215 -216 l30 -22 -40 5 c-145 18 -237 44
-358 98 -32 14 -60 26 -62 26 -10 0 -4 -100 10 -182 52 -301 215 -554 460
-714 90 -59 241 -127 312 -140 l38 -7 -30 -9 c-68 -19 -234 -28 -326 -18 -50
6 -94 9 -96 6 -8 -8 50 -141 95 -218 159 -270 436 -456 749 -503 54 -8 102
-15 108 -15 5 0 -19 -20 -53 -45 -271 -197 -609 -329 -962 -376 -102 -13 -437
-18 -483 -6 -49 13 -28 -8 61 -60 210 -123 332 -179 547 -253 326 -113 618
-161 975 -161 530 0 946 96 1393 323 255 129 493 303 702 513 563 565 895
1355 895 2130 l0 153 89 72 c112 89 289 273 371 386 34 47 60 87 58 90 -3 2
-52 -14 -110 -36 -58 -22 -150 -51 -204 -65 -111 -28 -260 -56 -247 -46 4 4
34 26 65 50 73 55 174 162 228 241 45 66 115 207 126 254 l7 29 -84 -45 c-158
-85 -354 -160 -507 -193 l-81 -18 -63 58 c-108 100 -217 164 -363 213 -139 46
-286 64 -437 51z"/>
</g>
</svg>
