<?xml version="1.0" standalone="no"?>
<!DOCTYPE svg PUBLIC "-//W3C//DTD SVG 20010904//EN"
 "http://www.w3.org/TR/2001/REC-SVG-20010904/DTD/svg10.dtd">
<svg version="1.0" xmlns="http://www.w3.org/2000/svg"
 width="512.000000pt" height="512.000000pt" viewBox="0 0 512.000000 512.000000"
 preserveAspectRatio="xMidYMid meet">
<metadata>
Created by potrace 1.15, written by Peter Selinger 2001-2017
</metadata>
<g transform="translate(0.000000,512.000000) scale(0.100000,-0.100000)"
fill="#000000" stroke="none">
<path d="M2240 5105 c-444 -55 -852 -220 -1220 -493 -150 -112 -400 -362 -512
-512 -276 -372 -439 -779 -494 -1230 -17 -148 -17 -472 0 -620 55 -451 218
-858 494 -1230 112 -150 362 -400 512 -512 372 -276 779 -439 1230 -494 148
-17 472 -17 620 0 451 55 858 218 1230 494 150 112 400 362 512 512 276 372
439 779 494 1230 17 148 17 472 0 620 -55 451 -218 858 -494 1230 -112 150
-362 400 -512 512 -372 276 -779 439 -1230 494 -143 17 -488 16 -630 -1z m578
-186 c594 -64 1167 -369 1549 -824 310 -369 502 -814 552 -1277 14 -125 14
-391 0 -516 -50 -463 -242 -908 -552 -1277 -382 -455 -955 -760 -1549 -824
-125 -14 -391 -14 -516 0 -463 50 -908 242 -1277 552 -455 382 -760 955 -824
1549 -14 125 -14 391 0 516 64 594 369 1167 824 1549 363 304 812 501 1260
551 114 13 419 14 533 1z"/>
<path d="M2450 4704 c-568 -38 -1061 -264 -1445 -665 -79 -83 -235 -277 -235
-293 0 -3 171 -6 380 -6 l380 0 0 -100 0 -100 -140 0 c-77 0 -140 -3 -139 -7
1 -26 766 -2165 773 -2164 5 0 106 275 223 612 l215 613 -156 440 c-86 243
-161 456 -167 474 l-11 32 -149 0 -149 0 0 100 0 100 655 0 655 0 0 -100 0
-100 -156 0 c-143 0 -155 -1 -150 -17 60 -183 764 -2155 770 -2156 5 -1 55
131 112 293 265 752 268 765 268 1050 1 182 -2 214 -22 286 -46 169 -98 269
-270 518 -40 58 -80 123 -89 143 -19 46 -12 118 18 198 54 144 209 255 356
255 29 0 53 4 53 9 0 11 -144 132 -235 197 -259 185 -604 322 -925 368 -111
16 -327 26 -420 20z"/>
<path d="M4425 3558 c13 -107 8 -298 -9 -403 -10 -55 -19 -113 -21 -130 -5
-36 0 -23 -464 -1319 -204 -571 -371 -1040 -371 -1043 0 -20 264 156 377 251
454 381 723 912 763 1504 25 377 -43 731 -205 1070 -35 72 -67 132 -70 132 -4
0 -4 -28 0 -62z"/>
<path d="M551 3318 c-105 -273 -151 -592 -131 -900 40 -591 308 -1119 763
-1504 120 -101 377 -271 377 -248 0 17 -965 2734 -971 2734 -4 0 -21 -37 -38
-82z"/>
<path d="M2555 2273 c-35 -90 -654 -1732 -657 -1742 -5 -23 204 -76 402 -101
118 -16 405 -16 525 -1 101 13 306 57 346 75 l27 11 -313 883 c-172 485 -315
885 -317 888 -3 3 -9 -3 -13 -13z"/>
</g>
</svg>
