<?xml version="1.0" standalone="no"?>
<!DOCTYPE svg PUBLIC "-//W3C//DTD SVG 20010904//EN"
 "http://www.w3.org/TR/2001/REC-SVG-20010904/DTD/svg10.dtd">
<svg version="1.0" xmlns="http://www.w3.org/2000/svg"
 width="512.000000pt" height="512.000000pt" viewBox="0 0 512.000000 512.000000"
 preserveAspectRatio="xMidYMid meet">
<metadata>
Created by potrace 1.15, written by Peter Selinger 2001-2017
</metadata>
<g transform="translate(0.000000,512.000000) scale(0.100000,-0.100000)"
fill="#000000" stroke="none">
<path d="M1515 3994 c-465 -22 -548 -33 -638 -81 -64 -35 -106 -86 -161 -192
-74 -144 -106 -272 -138 -546 -9 -76 -13 -266 -13 -610 0 -468 2 -509 23 -640
76 -481 201 -667 467 -695 239 -25 486 -32 1275 -37 1153 -7 1717 12 1860 61
132 45 237 191 295 408 64 238 85 474 85 948 0 683 -71 1048 -239 1232 -133
146 -171 149 -1656 153 -599 1 -1121 1 -1160 -1z m995 -881 c411 -266 773
-502 783 -512 4 -5 -20 -26 -55 -48 -70 -44 -1007 -648 -1050 -677 l-28 -18 0
737 c0 596 2 736 13 732 7 -2 159 -99 337 -214z"/>
</g>
</svg>
